<svg width="1667" height="676" viewBox="0 0 1667 676" fill="none" xmlns="http://www.w3.org/2000/svg">
<g clip-path="url(#clip0_204_2)">
<path d="M391.842 389.105C401.26 389.105 408.896 396.741 408.896 406.159V464.021C408.896 467.983 410.469 471.783 413.27 474.585L505.966 567.316C506.47 567.819 507 568.3 507.603 568.68C509.138 569.648 510.951 570.303 512.631 569.673C513.861 569.211 514.64 568.274 515.129 567.199C515.583 566.2 515.642 565.078 515.642 563.98V434.796C515.642 425.855 522.89 418.606 531.831 418.605C540.773 418.605 548.022 425.854 548.021 434.796V611.925C548.021 611.974 548.03 612.024 548.044 612.071C548.489 613.55 548.729 615.118 548.729 616.742C548.728 623.747 544.278 629.711 538.051 631.966C536.136 632.763 534.035 633.205 531.831 633.205C530.828 633.205 529.846 633.112 528.893 632.938C528.862 632.932 528.831 632.93 528.801 632.93H350.32C341.381 632.929 334.133 625.682 334.133 616.742C334.133 607.802 341.38 600.554 350.32 600.554H476.936C478.369 600.526 483.193 600.163 484.25 596.569C485.184 593.392 482.894 590.215 481.692 588.827L392.383 499.484C389.58 496.681 385.779 495.105 381.815 495.105H319.987C310.569 495.105 302.934 487.47 302.934 478.052V406.159C302.934 396.741 310.569 389.106 319.987 389.105H391.842ZM248.745 211C249.481 211 250.208 211.036 250.926 211.105H386.504C398.883 211.105 408.918 221.141 408.918 233.52V334.904C408.918 347.283 398.883 357.318 386.504 357.318H296.582C293.49 357.661 286.026 359.146 279.559 365.616C272.777 372.4 271.428 380.262 271.159 383.039V472.609C271.159 484.988 261.124 495.023 248.745 495.023H147.414C135.035 495.023 125 484.988 125 472.609V233.414C125 221.035 135.035 211 147.414 211H248.745Z" fill="url(#paint0_linear_204_2)"/>
<path d="M471.557 463.859V221.319C471.557 184.692 441.865 155 405.237 155H136.319C99.6922 155 70 184.692 70 221.319V490.387C70 527.014 99.6922 556.706 136.319 556.706H380.638" stroke="url(#paint1_linear_204_2)" stroke-width="32.2123" stroke-linecap="round"/>
<path d="M575.66 258.209H615.841V453.019C615.841 462.921 619.459 471.363 626.695 478.346C633.932 485.328 642.628 488.819 652.784 488.819H719.244C729.4 488.819 738.097 485.328 745.333 478.346C752.569 471.363 756.188 462.921 756.188 453.019V258.209H796.178V453.399C796.178 467.237 792.687 479.933 785.704 491.485C778.849 502.911 769.581 512.052 757.901 518.907C746.349 525.636 733.463 529 719.244 529H652.784C638.565 529 625.616 525.636 613.937 518.907C602.257 512.052 592.926 502.911 585.943 491.485C579.088 479.933 575.66 467.237 575.66 453.399V258.209ZM849.498 258.209H1059.54V298.199H889.679V488.819H1059.54V529H849.498V258.209ZM912.53 368.087H1059.54V408.077H912.53V368.087ZM1105.44 323.717C1105.44 311.656 1108.42 300.675 1114.39 290.772C1120.48 280.87 1128.6 272.999 1138.76 267.159C1149.04 261.192 1160.34 258.209 1172.66 258.209H1312.81V298.199H1172.66C1165.29 298.199 1158.95 300.802 1153.61 306.007C1148.28 311.212 1145.62 317.496 1145.62 324.859V343.521C1145.62 350.25 1148.28 356.026 1153.61 360.851C1158.95 365.675 1165.29 368.087 1172.66 368.087H1258.92C1271.36 368.087 1282.66 371.07 1292.82 377.037C1302.97 382.877 1311.04 390.812 1317 400.841C1323.1 410.743 1326.14 421.725 1326.14 433.785V463.302C1326.14 475.362 1323.1 486.407 1317 496.437C1311.04 506.339 1302.97 514.273 1292.82 520.24C1282.66 526.08 1271.36 529 1258.92 529H1105.63V488.819H1258.92C1266.41 488.819 1272.76 486.344 1277.96 481.393C1283.3 476.314 1285.96 470.221 1285.96 463.111V433.976C1285.96 426.866 1283.3 420.772 1277.96 415.694C1272.76 410.616 1266.41 408.077 1258.92 408.077H1172.66C1160.34 408.077 1149.04 405.221 1138.76 399.508C1128.6 393.668 1120.48 385.86 1114.39 376.085C1108.42 366.31 1105.44 355.519 1105.44 343.712V323.717ZM1372.04 437.594C1372.04 422.867 1375.46 412.013 1382.32 405.03C1389.18 398.048 1401.43 392.906 1419.07 389.605L1520 370.182C1526.22 369.039 1531.36 365.865 1535.43 360.66C1539.49 355.328 1541.52 349.234 1541.52 342.379V324.859C1541.52 317.496 1538.92 311.212 1533.71 306.007C1528.63 300.802 1522.41 298.199 1515.05 298.199H1385.56V258.209H1515.05C1527.36 258.209 1538.54 261.192 1548.57 267.159C1558.59 272.999 1566.59 280.87 1572.56 290.772C1578.65 300.675 1581.7 311.656 1581.7 323.717V343.141C1581.7 353.805 1579.67 363.707 1575.61 372.848C1571.54 381.988 1565.96 389.669 1558.85 395.89C1551.87 401.983 1543.87 405.919 1534.85 407.696L1421.55 429.215C1417.87 429.977 1415.33 430.929 1413.93 432.071C1412.66 433.087 1412.03 434.864 1412.03 437.403V489.01H1581.51V529H1372.04V437.594Z" fill="#B3B3B3"/>
</g>
<defs>
<linearGradient id="paint0_linear_204_2" x1="336.864" y1="211" x2="167" y2="474.5" gradientUnits="userSpaceOnUse">
<stop offset="0.46" stop-color="#FF6A00"/>
<stop offset="1" stop-color="#FFAE36"/>
</linearGradient>
<linearGradient id="paint1_linear_204_2" x1="270.778" y1="155" x2="70" y2="557" gradientUnits="userSpaceOnUse">
<stop offset="0.46" stop-color="#FF7700"/>
<stop offset="0.985157" stop-color="#FFAE36"/>
</linearGradient>
<clipPath id="clip0_204_2">
<rect width="1667" height="676" fill="white"/>
</clipPath>
</defs>
</svg>
